<svg xmlns="http://www.w3.org/2000/svg" viewBox="0 0 48 48">
  <path fill="#4285F4" d="M24 9.5c3.54 0 6.73 1.22 9.23 3.6l6.85-6.85C36.54 2.88 30.79 0 24 0 14.64 0 6.55 5.47 2.55 13.41l7.97 6.18C12.26 13.05 17.67 9.5 24 9.5z"></path>
  <path fill="#34A853" d="M46.1 24.5c0-1.57-.14-3.08-.39-4.5H24v9h12.65c-.55 2.83-2.2 5.23-4.65 6.84l7.44 5.78C43.79 37.51 46.1 31.42 46.1 24.5z"></path>
  <path fill="#FBBC05" d="M10.52 28.59c-.48-1.44-.75-2.97-.75-4.59s.27-3.15.75-4.59l-7.97-6.18C1.22 16.67 0 20.2 0 24c0 3.8 1.22 7.33 3.55 10.77l7.97-6.18z"></path>
  <path fill="#EA4335" d="M24 48c6.48 0 11.93-2.13 15.9-5.79l-7.44-5.78c-2.08 1.39-4.75 2.21-8.46 2.21-6.33 0-11.74-3.55-14.48-8.68l-7.97 6.18C6.55 42.53 14.64 48 24 48z"></path>
</svg>
